# xmcd
#
# Track frame offsets: 
#        150
#        18468
#        42564
#        63329
#        82234
#        103969
#        122404
#        143166
#        164386
#        183376
#        204572
#        229543
#        247554
#        266534
#        290048
#        305654
#
# Disc length: 4354 seconds
#
# Revision: 2
# Processed by: cddbd v1.4PL0 Copyright (c) Steve Scherf et al.
# Submitted via: ExactAudioCopy v0.95a4
#
DISCID=e5110010
DTITLE=Celine Dion - Live A Paris [CD 1)
DYEAR=1999
DGENRE=Pop
TTITLE0=That's The Way It Is
TTITLE1=If Walls Could Talk
TTITLE2=I Want You To Need Me
TTITLE3=Then You Look At Me
TTITLE4=The Power Of Love
TTITLE5=Beauty And The Beast
TTITLE6=Because You Loved Me
TTITLE7=To Love You More
TTITLE8=Immortality
TTITLE9=My Heart Will Go On
TTITLE10=I'm Your Angel
TTITLE11=Live
TTITLE12=When I Need You
TTITLE13=Let's Talk About Love
TTITLE14=The Color Of My Love
TTITLE15=Be The Man
EXTD=
EXTT0=
EXTT1=
EXTT2=
EXTT3=
EXTT4=
EXTT5=
EXTT6=
EXTT7=
EXTT8=
EXTT9=
EXTT10=
EXTT11=
EXTT12=
EXTT13=
EXTT14=
EXTT15=
PLAYORDER=
